<svg xmlns="http://www.w3.org/2000/svg" width="120" height="120">
    <path d="M60.1.45C27.05.45.23 27.48.23 60.83c0 26.68 17.16 49.32 40.95 57.3 3 .56 4.1-1.3 4.1-2.9 0-1.44-.06-6.2-.08-11.24C28.5 107.63 25 96.85 25 96.85c-2.72-6.98-6.64-8.83-6.64-8.83-5.43-3.75.4-3.67.4-3.67 6.02.42 9.2 6.22 9.2 6.22 5.33 9.23 14 6.56 17.42 5.02.53-3.9 2.1-6.57 3.8-8.08-13.3-1.52-27.3-6.7-27.3-29.84 0-6.6 2.35-11.98 6.18-16.2-.62-1.53-2.67-7.67.58-16 0 0 5.03-1.6 16.48 6.2 4.78-1.34 9.9-2 15-2.03 5.08.02 10.2.7 15 2.03 11.42-7.8 16.44-6.2 16.44-6.2 3.26 8.33 1.2 14.47.6 16 3.83 4.22 6.15 9.6 6.15 16.2 0 23.2-14 28.3-27.33 29.8 2.15 1.87 4.06 5.54 4.06 11.18 0 8.08-.07 14.58-.07 16.57 0 1.6 1.08 3.5 4.12 2.9 23.78-8 40.92-30.63 40.92-57.3C120 27.48 93.18.45 60.1.45"/>
    <path d="M22.9 87.15c-.13.3-.6.4-1.02.18-.44-.2-.68-.6-.54-.9.13-.3.6-.4 1.03-.2.43.2.68.62.53.92M25.33 89.88c-.3.26-.85.14-1.22-.28-.4-.42-.46-1-.17-1.26.3-.26.84-.14 1.23.28.4.43.47 1 .17 1.26M27.7 93.36c-.38.25-.98 0-1.35-.53-.37-.53-.37-1.18 0-1.44.38-.26.97-.03 1.35.5.36.55.36 1.2 0 1.45M30.92 96.72c-.32.36-1.02.26-1.53-.24-.54-.48-.68-1.17-.36-1.54.34-.36 1.04-.26 1.56.23.52.5.67 1.18.32 1.55M35.4 98.67c-.16.47-.83.68-1.5.48-.7-.2-1.13-.76-1-1.24.15-.46.82-.7 1.5-.47.68.2 1.13.75 1 1.24M40.3 99.03c0 .5-.57.9-1.28.92-.72 0-1.3-.4-1.3-.88 0-.5.56-.9 1.27-.92.7-.02 1.3.38 1.3.88M44.85 98.25c.08.48-.4.98-1.12 1.1-.7.14-1.34-.16-1.42-.64-.08-.5.42-1 1.12-1.12.7-.12 1.34.17 1.43.67"/>
</svg>
